<svg width="28" height="29" viewBox="0 0 28 29" fill="none" xmlns="http://www.w3.org/2000/svg">
<g id="Group">
<path id="Vector" d="M13.9566 26.5461C20.634 26.5461 26.047 21.133 26.047 14.4557C26.047 7.7783 20.634 2.36523 13.9566 2.36523C7.27927 2.36523 1.86621 7.7783 1.86621 14.4557C1.86621 21.133 7.27927 26.5461 13.9566 26.5461Z" stroke="#007CC7" stroke-width="3.22411" stroke-linecap="round" stroke-linejoin="round"/>
<path id="Vector_2" d="M13.9563 17.1428C15.4401 17.1428 16.643 15.9399 16.643 14.456C16.643 12.9722 15.4401 11.7693 13.9563 11.7693C12.4724 11.7693 11.2695 12.9722 11.2695 14.456C11.2695 15.9399 12.4724 17.1428 13.9563 17.1428Z" stroke="#007CC7" stroke-width="3.22411" stroke-linecap="round" stroke-linejoin="round"/>
<path id="Vector_3" d="M13.957 17.1421V26.5457" stroke="#007CC7" stroke-width="3.22411" stroke-linecap="round" stroke-linejoin="round"/>
<path id="Vector_4" d="M11.27 14.456L2.20215 11.7693" stroke="#007CC7" stroke-width="3.22411" stroke-linecap="round" stroke-linejoin="round"/>
<path id="Vector_5" d="M16.6436 14.456L25.7114 11.7693" stroke="#007CC7" stroke-width="3.22411" stroke-linecap="round" stroke-linejoin="round"/>
</g>
</svg>
