<svg width="34" height="25" viewBox="0 0 34 25" fill="none" xmlns="http://www.w3.org/2000/svg">
<g id="Group">
<path id="Vector" d="M31.062 24.5802C31.062 24.5802 33.077 24.5802 33.077 22.5652C33.077 20.5501 31.062 14.5049 23.0017 14.5049C14.9414 14.5049 12.9264 20.5501 12.9264 22.5652C12.9264 24.5802 14.9414 24.5802 14.9414 24.5802H31.062ZM14.9858 22.5652C14.9709 22.5631 14.9561 22.5604 14.9414 22.5571C14.9434 22.0251 15.2779 20.4816 16.4729 19.0912C17.5852 17.7875 19.5398 16.52 23.0017 16.52C26.4616 16.52 28.4162 17.7895 29.5305 19.0912C30.7255 20.4816 31.0579 22.0272 31.062 22.5571L31.0459 22.5612C31.0365 22.5627 31.0271 22.5641 31.0176 22.5652H14.9858ZM23.0017 10.4748C24.0706 10.4748 25.0956 10.0502 25.8514 9.29436C26.6072 8.53856 27.0318 7.51348 27.0318 6.44462C27.0318 5.37576 26.6072 4.35068 25.8514 3.59488C25.0956 2.83909 24.0706 2.41448 23.0017 2.41448C21.9328 2.41448 20.9078 2.83909 20.152 3.59488C19.3962 4.35068 18.9716 5.37576 18.9716 6.44462C18.9716 7.51348 19.3962 8.53856 20.152 9.29436C20.9078 10.0502 21.9328 10.4748 23.0017 10.4748ZM29.0469 6.44462C29.0469 7.23849 28.8905 8.02459 28.5867 8.75802C28.2829 9.49146 27.8377 10.1579 27.2763 10.7192C26.715 11.2806 26.0485 11.7259 25.3151 12.0297C24.5817 12.3335 23.7956 12.4898 23.0017 12.4898C22.2078 12.4898 21.4217 12.3335 20.6883 12.0297C19.9549 11.7259 19.2884 11.2806 18.7271 10.7192C18.1657 10.1579 17.7205 9.49146 17.4167 8.75802C17.1129 8.02459 16.9565 7.23849 16.9565 6.44462C16.9565 4.84133 17.5934 3.30371 18.7271 2.17001C19.8608 1.03632 21.3984 0.399414 23.0017 0.399414C24.605 0.399414 26.1426 1.03632 27.2763 2.17001C28.41 3.30371 29.0469 4.84133 29.0469 6.44462ZM14.8125 15.0691C14.0064 14.8153 13.1755 14.6484 12.3339 14.5714C11.8611 14.5264 11.3863 14.5042 10.9113 14.5049C2.85101 14.5049 0.835938 20.5501 0.835938 22.5652C0.835938 23.9092 1.50696 24.5802 2.85101 24.5802H11.3465C11.0478 23.9512 10.8988 23.2615 10.9113 22.5652C10.9113 20.53 11.671 18.4504 13.1077 16.7134C13.5974 16.121 14.1676 15.5668 14.8125 15.0691ZM10.7501 16.52C9.55747 18.3119 8.91322 20.4127 8.89622 22.5652H2.85101C2.85101 22.0413 3.18148 20.4897 4.38246 19.0912C5.48067 17.8096 7.38894 16.5603 10.7501 16.522V16.52ZM3.85854 7.45216C3.85854 5.84887 4.49545 4.31125 5.62914 3.17755C6.76284 2.04385 8.30046 1.40695 9.90375 1.40695C11.507 1.40695 13.0447 2.04385 14.1784 3.17755C15.3121 4.31125 15.949 5.84887 15.949 7.45216C15.949 9.05545 15.3121 10.5931 14.1784 11.7268C13.0447 12.8605 11.507 13.4974 9.90375 13.4974C8.30046 13.4974 6.76284 12.8605 5.62914 11.7268C4.49545 10.5931 3.85854 9.05545 3.85854 7.45216ZM9.90375 3.42202C8.83489 3.42202 7.80981 3.84662 7.05401 4.60242C6.29821 5.35822 5.87361 6.3833 5.87361 7.45216C5.87361 8.52102 6.29821 9.5461 7.05401 10.3019C7.80981 11.0577 8.83489 11.4823 9.90375 11.4823C10.9726 11.4823 11.9977 11.0577 12.7535 10.3019C13.5093 9.5461 13.9339 8.52102 13.9339 7.45216C13.9339 6.3833 13.5093 5.35822 12.7535 4.60242C11.9977 3.84662 10.9726 3.42202 9.90375 3.42202Z" fill="#007CC7"/>
</g>
</svg>
