<svg width="59" height="44" viewBox="0 0 59 44" fill="none" xmlns="http://www.w3.org/2000/svg">
<path id="Vector" d="M15.1928 0.292013C12.3294 0.292013 9.77842 2.15755 8.95628 4.90163L5.97359 14.8671L1.76962 13.4441L0.416016 17.5092L4.68506 18.9344L3.32929 23.544C3.27729 23.7428 3.25464 23.9482 3.26205 24.1536V41.5074C3.26205 42.7005 4.2382 43.6766 5.43128 43.6766H11.939L12.6852 41.5074H45.9005L46.6467 43.6766H53.1544C54.3474 43.6766 55.3236 42.7005 55.3236 41.5074V39.6766C55.3323 39.5681 55.3323 39.4488 55.3236 39.3382V24.1536C55.331 23.9482 55.3083 23.7428 55.2563 23.544L53.9006 18.9344L58.1696 17.5114L56.8139 13.4419L52.6121 14.8671L49.6294 4.90163C49.223 3.56526 48.3969 2.39532 47.2737 1.56508C46.1504 0.734837 44.7896 0.288444 43.3928 0.292013H15.1928ZM15.1928 4.63047H43.3928C44.3581 4.63047 45.215 5.26606 45.4948 6.19015L48.2736 15.4766H10.312L13.0908 6.19015C13.3728 5.25738 14.2275 4.63047 15.1928 4.63047ZM9.02352 19.8151H49.5621L50.9851 24.5614V37.1689H7.60051V24.5592L9.02352 19.8151ZM13.0236 21.9843C12.1606 21.9843 11.333 22.3271 10.7228 22.9374C10.1126 23.5476 9.76974 24.3752 9.76974 25.2382C9.76974 26.1011 10.1126 26.9288 10.7228 27.539C11.333 28.1492 12.1606 28.492 13.0236 28.492C13.8866 28.492 14.7142 28.1492 15.3244 27.539C15.9346 26.9288 16.2774 26.1011 16.2774 25.2382C16.2774 24.3752 15.9346 23.5476 15.3244 22.9374C14.7142 22.3271 13.8866 21.9843 13.0236 21.9843ZM45.562 21.9843C44.6991 21.9843 43.8714 22.3271 43.2612 22.9374C42.651 23.5476 42.3082 24.3752 42.3082 25.2382C42.3082 26.1011 42.651 26.9288 43.2612 27.539C43.8714 28.1492 44.6991 28.492 45.562 28.492C46.425 28.492 47.2527 28.1492 47.8629 27.539C48.4731 26.9288 48.8159 26.1011 48.8159 25.2382C48.8159 24.3752 48.4731 23.5476 47.8629 22.9374C47.2527 22.3271 46.425 21.9843 45.562 21.9843ZM20.6159 28.492L17.9044 34.9997H22.5812L23.5313 32.8305H35.0543L36.0044 34.9997H40.6813L37.9697 28.492H20.6159Z" fill="white"/>
</svg>
