<svg width="63" height="42" viewBox="0 0 63 42" fill="none" xmlns="http://www.w3.org/2000/svg">
<g id="Group 84">
<path id="Vector" d="M60.343 18.0827C59.3493 16.7635 55.6575 15.8551 54.0957 13.4812C52.5338 11.1072 51.2553 5.96616 47.2802 3.9908C43.3051 2.01545 35.7074 1.46094 31.3689 1.46094C27.0304 1.46094 19.4381 2.00325 15.4576 3.98674C11.477 5.97023 10.204 11.1072 8.64213 13.4771C7.08029 15.847 3.38853 16.7635 2.39475 18.0827C1.40097 19.4018 0.701391 27.7412 1.1271 31.8302C1.55281 35.9192 2.34729 38.3379 2.34729 38.3379H14.0069C15.9158 38.3379 16.5368 37.6207 20.4414 37.2532C24.7256 36.8465 28.9285 36.7109 31.3689 36.7109C33.8093 36.7109 38.1477 36.8465 42.4293 37.2532C46.3339 37.6234 46.9752 38.3379 48.8637 38.3379H60.3878C60.3878 38.3379 61.1823 35.9192 61.608 31.8302C62.0337 27.7412 61.3314 19.4018 60.343 18.0827Z" stroke="white" stroke-width="1.44615" stroke-linecap="round" stroke-linejoin="round"/>
<path id="Vector_2" d="M50.8926 38.3379H58.4849V40.5071H50.8926V38.3379Z" stroke="white" stroke-width="1.44615" stroke-linecap="round" stroke-linejoin="round"/>
<path id="Vector_3" d="M4.25391 38.3379H11.8462V40.5071H4.25391V38.3379Z" stroke="white" stroke-width="1.44615" stroke-linecap="round" stroke-linejoin="round"/>
<path id="Vector_4" d="M46.0751 28.1921C45.2739 27.2661 42.6627 26.4933 39.2055 25.9754C35.7482 25.4575 34.4874 25.3232 31.3962 25.3232C28.3051 25.3232 26.8991 25.5456 23.5856 25.9754C20.2721 26.4051 17.7843 27.1698 16.7173 28.1921C15.1161 29.7431 17.4616 31.4839 19.3028 31.6954C21.087 31.8987 24.654 31.8242 31.4111 31.8242C38.1683 31.8242 41.7353 31.8987 43.5195 31.6954C45.3579 31.4717 47.5353 29.8515 46.0751 28.1921Z" fill="white"/>
<path id="Vector_5" d="M55.1726 19.2286C55.165 19.121 55.1178 19.0199 55.0403 18.9448C54.9627 18.8697 54.8601 18.826 54.7523 18.8219C53.1511 18.765 51.5255 18.8788 48.6418 19.7289C47.1706 20.1584 45.789 20.8501 44.5637 21.7707C44.2546 22.012 44.3644 22.6642 44.7521 22.7333C47.129 23.0121 49.5201 23.1524 51.9133 23.1536C53.3491 23.1536 54.8309 22.7469 55.1061 21.467C55.2464 20.7291 55.2689 19.9736 55.1726 19.2286Z" fill="white"/>
<path id="Vector_6" d="M7.56646 19.2286C7.57407 19.121 7.62118 19.0199 7.69875 18.9448C7.77632 18.8697 7.87888 18.826 7.98675 18.8219C9.58791 18.765 11.2135 18.8788 14.0972 19.7289C15.5684 20.1584 16.95 20.8501 18.1754 21.7707C18.4845 22.012 18.3746 22.6642 17.9869 22.7333C15.61 23.0121 13.2189 23.1524 10.8257 23.1536C9.38997 23.1536 7.90811 22.7469 7.63289 21.467C7.49257 20.7291 7.47015 19.9736 7.56646 19.2286Z" fill="white"/>
<path id="Vector_7" d="M55.2305 12.3076H57.3997" stroke="white" stroke-width="1.44615" stroke-linecap="round" stroke-linejoin="round"/>
<path id="Vector_8" d="M5.33789 12.3076H7.50712" stroke="white" stroke-width="1.44615" stroke-linecap="round" stroke-linejoin="round"/>
<path id="Vector_9" d="M7.23633 14.8838C7.23633 14.8838 13.5203 13.2568 31.369 13.2568C49.2177 13.2568 55.5017 14.8838 55.5017 14.8838" stroke="white" stroke-width="1.44615" stroke-linecap="round" stroke-linejoin="round"/>
</g>
</svg>
