<svg width="61" height="53" viewBox="0 0 61 53" fill="none" xmlns="http://www.w3.org/2000/svg">
<g id="Vector" filter="url(#filter0_d_59_143)">
<path d="M21.8125 28.5714H20.0312C16.0958 28.5714 12.9062 31.7746 12.9062 35.7277V42.8438C12.9062 46.7958 16.0958 50 20.0312 50H21.8125C23.7797 50 25.375 48.3973 25.375 46.4219V32.1496C25.375 30.173 23.7797 28.5714 21.8125 28.5714ZM44.9688 28.5714H43.1875C41.2203 28.5714 39.625 30.173 39.625 32.1496V46.4219C39.625 48.3973 41.2203 50 43.1875 50H44.9688C48.9042 50 52.0938 46.7958 52.0938 42.8438V35.7277C52.0938 31.7757 48.9042 28.5714 44.9688 28.5714ZM32.5 0C16.5701 0 4.50877 13.2958 4 28.5714V41.0714C4 42.058 4.79711 42.8571 5.78125 42.8571H7.5625C8.54664 42.8571 9.34375 42.058 9.34375 41.0714V28.5714C9.34375 15.7734 19.734 5.37946 32.5 5.37723C45.266 5.37946 55.6562 15.7734 55.6562 28.5714V41.0714C55.6562 42.058 56.4534 42.8571 57.4375 42.8571H59.2188C60.2029 42.8571 61 42.058 61 41.0714V28.5714C60.4912 13.2958 48.4299 0 32.5 0Z" fill="#BB0000"/>
</g>
<defs>
<filter id="filter0_d_59_143" x="0" y="0" width="61" height="53" filterUnits="userSpaceOnUse" color-interpolation-filters="sRGB">
<feFlood flood-opacity="0" result="BackgroundImageFix"/>
<feColorMatrix in="SourceAlpha" type="matrix" values="0 0 0 0 0 0 0 0 0 0 0 0 0 0 0 0 0 0 127 0" result="hardAlpha"/>
<feOffset dx="-3" dy="2"/>
<feGaussianBlur stdDeviation="0.5"/>
<feComposite in2="hardAlpha" operator="out"/>
<feColorMatrix type="matrix" values="0 0 0 0 0 0 0 0 0 0 0 0 0 0 0 0 0 0 0.25 0"/>
<feBlend mode="normal" in2="BackgroundImageFix" result="effect1_dropShadow_59_143"/>
<feBlend mode="normal" in="SourceGraphic" in2="effect1_dropShadow_59_143" result="shape"/>
</filter>
</defs>
</svg>
